<svg id="Layer_1" data-name="Layer 1" xmlns="http://www.w3.org/2000/svg" viewBox="0 0 1000 1000"><defs><style>.cls-1{fill:#fff;}</style></defs><path class="cls-1" d="M812.13,156v696.8a91.73,91.73,0,0,1-91.73,91.74H284.3A74.1,74.1,0,0,0,355.93,1000h438a74.07,74.07,0,0,0,74-74V227.67A74.11,74.11,0,0,0,812.13,156Z"/><path class="cls-1" d="M738.15,82V777.82a91.73,91.73,0,0,1-91.73,91.73H210.09A74.1,74.1,0,0,0,282,926H719.9a74.06,74.06,0,0,0,74-74V153.7A74.11,74.11,0,0,0,738.15,82Z"/><path class="cls-1" d="M720.4,777.82V79.73H282a74.05,74.05,0,0,0-74,74V851.79H646.42A74.07,74.07,0,0,0,720.4,777.82Z"/><rect class="cls-1" x="134" y="5" width="585.9" height="846.3" rx="73.98"/></svg>