<svg xmlns="http://www.w3.org/2000/svg" viewBox="0 0 1000 1000"><defs><style>.cls-1{fill:#fff;}</style></defs><g id="Layer_2" data-name="Layer 2"><path class="cls-1" d="M924.46,703.43c-1.33-1.24-14,9.16-23.93,20-305,331.2-717.39,191-768.52,194.67a51.54,51.54,0,0,1-3.38,6.19c27.76,28.38,356.75,135.7,596.4-23.37C840.06,824.52,927,705.77,924.46,703.43Z"/><path class="cls-1" d="M193,762.59c49.74-6.31,84.43-41.67,96.26-54.08a188.7,188.7,0,0,0,26.9-35.74,123.9,123.9,0,0,0-35.73-6.62c-22.18-.7-61.6,4.44-60.63-1.45.17-1,1.77-3.72,19.92-10.41,16.45-6.07,55-20.27,94.09-18.73,3.58-8.88,7-17.89,10.71-27.11,9-22.15,21.95-49.92,43.23-87.74-38.91-3.22-71.6-8.24-71.52-12.4.09-4.67,41.48-11.37,86.5-13.55,21.07-35.63,48.65-79.05,85.3-133q4-5.83,7.72-11.34a271.3,271.3,0,0,0-45.9,0c-19.56,1.55-39.21,4.79-39.89,2-.86-3.55,29.6-13.8,41.88-17.95,27.19-9.2,51-17.48,72.05-24.83,25-35.77,42.39-59.12,59.26-79.92,13.83-17.06,27.65-34.34,41.56-51.62-65.27,9.89-67.35,8.17-67.57,7.34-.87-3.41,23.92-13.3,42.77-18.84a254.69,254.69,0,0,1,40.82-8.32c33.88-41.73,68.6-83,105.89-120.9,4-4.08,16.81-16.88,14-21.39-.69-1.08-4.41-5.05-37.24,8,0,0-165.18,65.05-246.29,116-2.36,8.27-4.84,16.3-7.23,24-10.24,33.08-26.42,67.68-34.55,66.71-6.87-.82,2.59-25.75.92-60.08A1848.36,1848.36,0,0,0,297.65,301.5s-8.65,8.82-22.4,23.95c-1.33,16.25-2.12,34.06-2.11,54,0,15.9.54,49.91-4,50.29-4.82.4-12.64-36.79-15.18-48.88-1.67-8-3.21-16.7-4.63-26C211.58,398.7,160,464,125.84,529a140.75,140.75,0,0,0,2.23,17.23c3.94,19.9,15.32,52.48,11.08,54.19-.73.29-2.9.05-11.11-13.07a277.3,277.3,0,0,1-16.29-29.25A300.35,300.35,0,0,0,95.4,604.31a169.28,169.28,0,0,0-4.17,24.1c-.62,6,2.63,53.29,21.45,90.66,126.23-277.44,358-510.45,468.76-594,11.95-9,148.92-97.37,151.57-93.73,2.2,3-100.79,70.39-141.6,99.72-61.26,44-366.92,334.34-460.1,622.15-11.5,48.3-23,101.1-24.14,138.08-1.13,35.12,10.73,39.68,23.56-.4C154,818.33,166.42,790.64,193,762.59Z"/></g></svg>