<svg id="Layer_1" data-name="Layer 1" xmlns="http://www.w3.org/2000/svg" viewBox="0 0 1000 1000"><defs><style>.cls-1{fill:#fff;}</style></defs><path class="cls-1" d="M311.34,586.78H11.65c-4.68,0-8.48,3.15-8.48,7v50.38c0,3.89,3.8,7,8.48,7H311.34Z"/><path class="cls-1" d="M720.13,785.49H278.73c-4.69,0-8.49,3.15-8.49,7v62.1c0,3.89,3.8,7,8.49,7h441.4c4.68,0,8.48-3.14,8.48-7v-62.1C728.61,788.64,724.81,785.49,720.13,785.49Z"/><path class="cls-1" d="M333.9,766.74H663.54c4.68,0,8.48-3.15,8.48-7V460.32c0-79.27-77.59-143.54-173.3-143.54h0c-95.72,0-173.31,64.27-173.31,143.54V759.71C325.41,763.59,329.21,766.74,333.9,766.74Z"/><path class="cls-1" d="M311.57,456.21c0-55.78,37.54-104.49,93.38-130.64v-64c0-79.27-77.59-143.54-173.3-143.54h0c-95.72,0-173.31,64.27-173.31,143.54V561c0,3.88,3.8,7,8.49,7H311.57Z"/><path class="cls-1" d="M766.1,117.58h0c-95.71,0-173.3,64.27-173.3,143.54v64.31c56,26.12,93.67,74.9,93.67,130.78V567.54H930.92c4.69,0,8.49-3.15,8.49-7V261.12C939.41,181.85,861.82,117.58,766.1,117.58Z"/><path class="cls-1" d="M987.51,586.29h-301v76.16h301c4.69,0,8.49-3.14,8.49-7v-62.1C996,589.44,992.2,586.29,987.51,586.29Z"/></svg>